<svg xmlns="http://www.w3.org/2000/svg" xmlns:xlink="http://www.w3.org/1999/xlink" width="1200" zoomAndPan="magnify" viewBox="0 0 900 374.999991" height="500" preserveAspectRatio="xMidYMid meet" version="1.0"><defs><g/><clipPath id="b1c1ac3df9"><path d="M 108.222656 54.285156 L 298 54.285156 L 298 156 L 108.222656 156 Z M 108.222656 54.285156 " clip-rule="nonzero"/></clipPath><clipPath id="78a0732cd1"><path d="M 126 204 L 303.222656 204 L 303.222656 320.535156 L 126 320.535156 Z M 126 204 " clip-rule="nonzero"/></clipPath></defs><path fill="#a92323" d="M 214.5 104.410156 L 214.5 197.816406 L 191.328125 197.816406 L 191.328125 104.410156 L 202.914062 95.636719 Z M 214.5 104.410156 " fill-opacity="1" fill-rule="nonzero"/><path fill="#d53636" d="M 158.742188 197.816406 L 181.910156 197.816406 L 181.910156 111.535156 L 158.742188 129.074219 Z M 158.742188 197.816406 " fill-opacity="1" fill-rule="nonzero"/><path fill="#d53636" d="M 223.917969 111.535156 L 223.917969 197.816406 L 247.082031 197.816406 L 247.082031 129.074219 Z M 223.917969 111.535156 " fill-opacity="1" fill-rule="nonzero"/><path fill="#f3ccc4" d="M 126.160156 205.621094 C 130.570312 200.828125 136.894531 197.816406 143.910156 197.816406 L 149.324219 197.816406 L 149.324219 136.203125 L 126.160156 153.742188 Z M 126.160156 205.621094 " fill-opacity="1" fill-rule="nonzero"/><path fill="#f3ccc4" d="M 256.503906 136.203125 L 256.503906 197.816406 L 261.917969 197.816406 C 268.933594 197.816406 275.257812 200.828125 279.675781 205.621094 L 279.675781 153.742188 Z M 256.503906 136.203125 " fill-opacity="1" fill-rule="nonzero"/><g clip-path="url(#b1c1ac3df9)"><path fill="#242424" d="M 297.605469 155.039062 L 297.605469 125.980469 L 222.105469 68.828125 L 202.914062 54.300781 L 183.722656 68.828125 L 108.222656 125.980469 L 108.222656 155.039062 L 202.914062 83.355469 Z M 297.605469 155.039062 " fill-opacity="1" fill-rule="nonzero"/></g><g clip-path="url(#78a0732cd1)"><path fill="#242424" d="M 279.671875 222.382812 L 279.671875 221.953125 C 279.671875 212.144531 271.722656 204.199219 261.917969 204.199219 L 143.910156 204.199219 C 134.105469 204.199219 126.160156 212.144531 126.160156 221.953125 L 126.160156 234.941406 C 126.160156 244.746094 134.105469 252.699219 143.910156 252.699219 L 261.917969 252.699219 C 271.722656 252.699219 279.671875 244.746094 279.671875 234.941406 L 279.671875 234.507812 C 286.117188 234.511719 291.363281 239.753906 291.363281 246.203125 L 291.363281 265.6875 C 291.363281 272.136719 286.117188 277.382812 279.671875 277.382812 L 194.035156 277.382812 C 180.902344 277.382812 170.21875 288.066406 170.21875 301.199219 L 170.21875 320.683594 L 182.34375 320.683594 L 182.34375 301.199219 C 182.34375 294.75 187.589844 289.503906 194.035156 289.503906 L 279.671875 289.503906 C 292.804688 289.503906 303.488281 278.820312 303.488281 265.6875 L 303.488281 246.203125 C 303.488281 233.070312 292.804688 222.386719 279.671875 222.382812 Z M 273.949219 234.941406 C 273.949219 241.578125 268.550781 246.976562 261.917969 246.976562 L 143.910156 246.976562 C 137.28125 246.976562 131.882812 241.578125 131.882812 234.941406 L 131.882812 229.21875 C 131.882812 235.855469 137.28125 241.253906 143.910156 241.253906 L 261.917969 241.253906 C 268.550781 241.253906 273.949219 235.855469 273.949219 229.21875 Z M 273.949219 234.941406 " fill-opacity="1" fill-rule="nonzero"/></g><g fill="#242424" fill-opacity="1"><g transform="translate(322.846307, 151.972651)"><g><path d="M 61.578125 0 L 56.046875 -15.03125 L 24.515625 -15.03125 L 19.09375 0 L 1.015625 0 L 31.96875 -79.09375 L 48.125 -79.09375 L 80.109375 0 Z M 40.21875 -58.1875 L 29.9375 -29.9375 L 50.609375 -29.9375 Z M 40.21875 -58.1875 "/></g></g></g><g fill="#242424" fill-opacity="1"><g transform="translate(397.525133, 151.972651)"><g><path d="M 29.609375 1.6875 C 24.484375 1.6875 20 0.785156 16.15625 -1.015625 C 12.3125 -2.828125 9.316406 -5.367188 7.171875 -8.640625 C 5.023438 -11.921875 3.953125 -15.742188 3.953125 -20.109375 L 20 -20.109375 C 20.070312 -17.398438 21.050781 -15.363281 22.9375 -14 C 24.820312 -12.644531 27.234375 -11.96875 30.171875 -11.96875 C 32.503906 -11.96875 34.535156 -12.476562 36.265625 -13.5 C 37.992188 -14.519531 38.859375 -16.046875 38.859375 -18.078125 C 38.859375 -20.179688 37.707031 -21.664062 35.40625 -22.53125 C 33.113281 -23.40625 30.347656 -24.101562 27.109375 -24.625 C 24.703125 -25.007812 22.195312 -25.539062 19.59375 -26.21875 C 17 -26.894531 14.609375 -27.875 12.421875 -29.15625 C 10.242188 -30.4375 8.457031 -32.203125 7.0625 -34.453125 C 5.664062 -36.710938 4.96875 -39.648438 4.96875 -43.265625 C 4.96875 -47.109375 6.003906 -50.5 8.078125 -53.4375 C 10.148438 -56.375 13.007812 -58.648438 16.65625 -60.265625 C 20.3125 -61.890625 24.628906 -62.703125 29.609375 -62.703125 C 34.503906 -62.703125 38.773438 -61.851562 42.421875 -60.15625 C 46.078125 -58.46875 48.921875 -56.097656 50.953125 -53.046875 C 52.984375 -49.992188 54 -46.4375 54 -42.375 L 38.296875 -42.375 C 38.296875 -44.78125 37.484375 -46.582031 35.859375 -47.78125 C 34.242188 -48.988281 32.007812 -49.59375 29.15625 -49.59375 C 26.59375 -49.59375 24.59375 -49.046875 23.15625 -47.953125 C 21.726562 -46.867188 21.015625 -45.457031 21.015625 -43.71875 C 21.015625 -41.6875 22.144531 -40.296875 24.40625 -39.546875 C 26.664062 -38.796875 29.378906 -38.15625 32.546875 -37.625 C 35.023438 -37.175781 37.582031 -36.628906 40.21875 -35.984375 C 42.851562 -35.347656 45.300781 -34.390625 47.5625 -33.109375 C 49.820312 -31.828125 51.648438 -30.054688 53.046875 -27.796875 C 54.441406 -25.535156 55.140625 -22.5625 55.140625 -18.875 C 55.140625 -14.726562 54.082031 -11.109375 51.96875 -8.015625 C 49.863281 -4.929688 46.890625 -2.539062 43.046875 -0.84375 C 39.203125 0.84375 34.722656 1.6875 29.609375 1.6875 Z M 29.609375 1.6875 "/></g></g></g><g fill="#242424" fill-opacity="1"><g transform="translate(450.398959, 151.972651)"><g><path d="M 35.8125 1.6875 C 30.09375 1.6875 25.066406 0.539062 20.734375 -1.75 C 16.398438 -4.050781 13.046875 -7.253906 10.671875 -11.359375 C 8.304688 -15.460938 7.125 -20.265625 7.125 -25.765625 L 7.125 -61.015625 L 23.609375 -61.015625 L 23.609375 -27.6875 C 23.609375 -23.3125 24.679688 -19.898438 26.828125 -17.453125 C 28.972656 -15.003906 31.96875 -13.78125 35.8125 -13.78125 C 39.65625 -13.78125 42.628906 -15.019531 44.734375 -17.5 C 46.847656 -19.988281 47.90625 -23.382812 47.90625 -27.6875 L 47.90625 -61.015625 L 64.40625 -61.015625 L 64.40625 -25.765625 C 64.40625 -20.265625 63.21875 -15.460938 60.84375 -11.359375 C 58.46875 -7.253906 55.132812 -4.050781 50.84375 -1.75 C 46.550781 0.539062 41.539062 1.6875 35.8125 1.6875 Z M 35.8125 1.6875 "/></g></g></g><g fill="#242424" fill-opacity="1"><g transform="translate(515.474527, 151.972651)"><g><path d="M 42.703125 -62.484375 C 49.640625 -62.484375 55.117188 -60.164062 59.140625 -55.53125 C 63.171875 -50.894531 65.1875 -44.703125 65.1875 -36.953125 L 65.1875 0 L 48.703125 0 L 48.703125 -34.34375 C 48.703125 -43.457031 45.160156 -48.015625 38.078125 -48.015625 C 33.859375 -48.015625 30.523438 -46.582031 28.078125 -43.71875 C 25.628906 -40.863281 24.40625 -36.988281 24.40625 -32.09375 L 24.40625 0 L 7.90625 0 L 7.90625 -61.015625 L 19.203125 -61.015625 L 22.484375 -53.4375 C 24.742188 -56.226562 27.644531 -58.429688 31.1875 -60.046875 C 34.726562 -61.671875 38.566406 -62.484375 42.703125 -62.484375 Z M 42.703125 -62.484375 "/></g></g></g><g fill="#242424" fill-opacity="1"><g transform="translate(581.453964, 151.972651)"><g><path d="M 42.703125 -62.484375 C 49.640625 -62.484375 55.117188 -60.164062 59.140625 -55.53125 C 63.171875 -50.894531 65.1875 -44.703125 65.1875 -36.953125 L 65.1875 0 L 48.703125 0 L 48.703125 -34.34375 C 48.703125 -43.457031 45.160156 -48.015625 38.078125 -48.015625 C 33.859375 -48.015625 30.523438 -46.582031 28.078125 -43.71875 C 25.628906 -40.863281 24.40625 -36.988281 24.40625 -32.09375 L 24.40625 0 L 7.90625 0 L 7.90625 -61.015625 L 19.203125 -61.015625 L 22.484375 -53.4375 C 24.742188 -56.226562 27.644531 -58.429688 31.1875 -60.046875 C 34.726562 -61.671875 38.566406 -62.484375 42.703125 -62.484375 Z M 42.703125 -62.484375 "/></g></g></g><g fill="#242424" fill-opacity="1"><g transform="translate(647.433402, 151.972651)"><g><path d="M 36.953125 1.6875 C 30.617188 1.6875 24.96875 0.273438 20 -2.546875 C 15.03125 -5.367188 11.113281 -9.207031 8.25 -14.0625 C 5.382812 -18.925781 3.953125 -24.40625 3.953125 -30.5 C 3.953125 -36.675781 5.382812 -42.191406 8.25 -47.046875 C 11.113281 -51.910156 15.03125 -55.734375 20 -58.515625 C 24.96875 -61.304688 30.617188 -62.703125 36.953125 -62.703125 C 43.203125 -62.703125 48.8125 -61.304688 53.78125 -58.515625 C 58.75 -55.734375 62.664062 -51.910156 65.53125 -47.046875 C 68.394531 -42.191406 69.828125 -36.675781 69.828125 -30.5 C 69.828125 -24.40625 68.394531 -18.925781 65.53125 -14.0625 C 62.664062 -9.207031 58.75 -5.367188 53.78125 -2.546875 C 48.8125 0.273438 43.203125 1.6875 36.953125 1.6875 Z M 36.953125 -13.78125 C 41.691406 -13.78125 45.566406 -15.320312 48.578125 -18.40625 C 51.597656 -21.5 53.109375 -25.53125 53.109375 -30.5 C 53.109375 -35.476562 51.597656 -39.507812 48.578125 -42.59375 C 45.566406 -45.6875 41.691406 -47.234375 36.953125 -47.234375 C 32.128906 -47.234375 28.207031 -45.6875 25.1875 -42.59375 C 22.175781 -39.507812 20.671875 -35.476562 20.671875 -30.5 C 20.671875 -25.53125 22.175781 -21.5 25.1875 -18.40625 C 28.207031 -15.320312 32.128906 -13.78125 36.953125 -13.78125 Z M 36.953125 -13.78125 "/></g></g></g><g fill="#242424" fill-opacity="1"><g transform="translate(714.768603, 151.972651)"><g><path d="M 42.703125 -62.484375 C 49.640625 -62.484375 55.117188 -60.164062 59.140625 -55.53125 C 63.171875 -50.894531 65.1875 -44.703125 65.1875 -36.953125 L 65.1875 0 L 48.703125 0 L 48.703125 -34.34375 C 48.703125 -43.457031 45.160156 -48.015625 38.078125 -48.015625 C 33.859375 -48.015625 30.523438 -46.582031 28.078125 -43.71875 C 25.628906 -40.863281 24.40625 -36.988281 24.40625 -32.09375 L 24.40625 0 L 7.90625 0 L 7.90625 -61.015625 L 19.203125 -61.015625 L 22.484375 -53.4375 C 24.742188 -56.226562 27.644531 -58.429688 31.1875 -60.046875 C 34.726562 -61.671875 38.566406 -62.484375 42.703125 -62.484375 Z M 42.703125 -62.484375 "/></g></g></g><g fill="#242424" fill-opacity="1"><g transform="translate(322.846307, 258.673366)"><g><path d="M 36.234375 -59.265625 L 41.46875 -59.265625 L 41.46875 -50.421875 L 35.46875 -50.421875 C 30.082031 -50.421875 25.929688 -48.78125 23.015625 -45.5 C 20.109375 -42.226562 18.65625 -37.722656 18.65625 -31.984375 L 18.65625 0 L 9.390625 0 L 9.390625 -58.9375 L 15.9375 -58.9375 L 17.46875 -49.984375 C 19.570312 -52.972656 22.171875 -55.265625 25.265625 -56.859375 C 28.359375 -58.460938 32.015625 -59.265625 36.234375 -59.265625 Z M 36.234375 -59.265625 "/></g></g></g><g fill="#242424" fill-opacity="1"><g transform="translate(358.752652, 258.673366)"><g><path d="M 64.5 -29.25 C 64.5 -28.664062 64.460938 -28.097656 64.390625 -27.546875 C 64.316406 -27.003906 64.28125 -26.441406 64.28125 -25.859375 L 13.96875 -25.859375 C 14.695312 -20.410156 16.953125 -16.03125 20.734375 -12.71875 C 24.515625 -9.40625 29.171875 -7.75 34.703125 -7.75 C 38.773438 -7.75 42.410156 -8.65625 45.609375 -10.46875 C 48.816406 -12.289062 51.332031 -14.804688 53.15625 -18.015625 L 62.859375 -18.015625 C 60.390625 -11.898438 56.679688 -7.148438 51.734375 -3.765625 C 46.785156 -0.378906 41.109375 1.3125 34.703125 1.3125 C 29.023438 1.3125 23.910156 -0.03125 19.359375 -2.71875 C 14.816406 -5.414062 11.234375 -9.09375 8.609375 -13.75 C 5.992188 -18.40625 4.6875 -23.644531 4.6875 -29.46875 C 4.6875 -35.289062 5.992188 -40.53125 8.609375 -45.1875 C 11.234375 -49.84375 14.816406 -53.515625 19.359375 -56.203125 C 23.910156 -58.898438 29.023438 -60.25 34.703125 -60.25 C 40.671875 -60.25 45.890625 -58.863281 50.359375 -56.09375 C 54.835938 -53.332031 58.3125 -49.601562 60.78125 -44.90625 C 63.257812 -40.21875 64.5 -35 64.5 -29.25 Z M 34.703125 -51.40625 C 29.390625 -51.40625 24.894531 -49.859375 21.21875 -46.765625 C 17.550781 -43.671875 15.207031 -39.578125 14.1875 -34.484375 L 55.109375 -34.484375 C 54.171875 -39.722656 51.84375 -43.851562 48.125 -46.875 C 44.414062 -49.894531 39.941406 -51.40625 34.703125 -51.40625 Z M 34.703125 -51.40625 "/></g></g></g><g fill="#242424" fill-opacity="1"><g transform="translate(421.507384, 258.673366)"><g><path d="M 74.4375 -60.25 C 78.65625 -60.25 82.3125 -59.285156 85.40625 -57.359375 C 88.5 -55.429688 90.898438 -52.773438 92.609375 -49.390625 C 94.316406 -46.003906 95.171875 -42.09375 95.171875 -37.65625 L 95.171875 0 L 85.890625 0 L 85.890625 -34.8125 C 85.890625 -40.125 84.722656 -44.269531 82.390625 -47.25 C 80.066406 -50.238281 76.796875 -51.734375 72.578125 -51.734375 C 69.742188 -51.734375 67.125 -50.894531 64.71875 -49.21875 C 62.320312 -47.550781 60.410156 -45.28125 58.984375 -42.40625 C 57.566406 -39.53125 56.859375 -36.273438 56.859375 -32.640625 L 56.859375 0 L 47.796875 0 L 47.796875 -34.8125 C 47.796875 -40.125 46.613281 -44.269531 44.25 -47.25 C 41.882812 -50.238281 38.59375 -51.734375 34.375 -51.734375 C 31.46875 -51.734375 28.832031 -50.894531 26.46875 -49.21875 C 24.101562 -47.550781 22.207031 -45.28125 20.78125 -42.40625 C 19.363281 -39.53125 18.65625 -36.273438 18.65625 -32.640625 L 18.65625 0 L 9.390625 0 L 9.390625 -58.9375 L 16.046875 -58.9375 L 17.578125 -50.859375 C 19.828125 -53.765625 22.609375 -56.054688 25.921875 -57.734375 C 29.234375 -59.410156 32.742188 -60.25 36.453125 -60.25 C 40.597656 -60.25 44.234375 -59.25 47.359375 -57.25 C 50.492188 -55.25 52.863281 -52.5 54.46875 -49 C 56.71875 -52.5 59.609375 -55.25 63.140625 -57.25 C 66.671875 -59.25 70.4375 -60.25 74.4375 -60.25 Z M 74.4375 -60.25 "/></g></g></g><g fill="#242424" fill-opacity="1"><g transform="translate(518.968554, 258.673366)"><g><path d="M 35.90625 1.3125 C 29.9375 1.3125 24.601562 -0.03125 19.90625 -2.71875 C 15.21875 -5.414062 11.507812 -9.070312 8.78125 -13.6875 C 6.050781 -18.3125 4.6875 -23.570312 4.6875 -29.46875 C 4.6875 -35.363281 6.050781 -40.640625 8.78125 -45.296875 C 11.507812 -49.953125 15.21875 -53.609375 19.90625 -56.265625 C 24.601562 -58.921875 29.9375 -60.25 35.90625 -60.25 C 41.875 -60.25 47.222656 -58.898438 51.953125 -56.203125 C 56.679688 -53.515625 60.410156 -49.859375 63.140625 -45.234375 C 65.867188 -40.617188 67.234375 -35.363281 67.234375 -29.46875 C 67.234375 -23.570312 65.867188 -18.3125 63.140625 -13.6875 C 60.410156 -9.070312 56.679688 -5.414062 51.953125 -2.71875 C 47.222656 -0.03125 41.875 1.3125 35.90625 1.3125 Z M 35.90625 -7.640625 C 40.125 -7.640625 43.867188 -8.582031 47.140625 -10.46875 C 50.421875 -12.363281 53.003906 -14.945312 54.890625 -18.21875 C 56.785156 -21.5 57.734375 -25.25 57.734375 -29.46875 C 57.734375 -33.6875 56.785156 -37.429688 54.890625 -40.703125 C 53.003906 -43.984375 50.421875 -46.566406 47.140625 -48.453125 C 43.867188 -50.347656 40.125 -51.296875 35.90625 -51.296875 C 31.6875 -51.296875 27.9375 -50.347656 24.65625 -48.453125 C 21.382812 -46.566406 18.820312 -43.984375 16.96875 -40.703125 C 15.113281 -37.429688 14.1875 -33.6875 14.1875 -29.46875 C 14.1875 -25.25 15.113281 -21.5 16.96875 -18.21875 C 18.820312 -14.945312 21.40625 -12.363281 24.71875 -10.46875 C 28.03125 -8.582031 31.757812 -7.640625 35.90625 -7.640625 Z M 35.90625 -7.640625 "/></g></g></g><g fill="#242424" fill-opacity="1"><g transform="translate(584.670055, 258.673366)"><g><path d="M 38.859375 -60.25 C 43.515625 -60.25 47.550781 -59.175781 50.96875 -57.03125 C 54.382812 -54.882812 57.003906 -51.914062 58.828125 -48.125 C 60.648438 -44.34375 61.5625 -40.050781 61.5625 -35.25 L 61.5625 0 L 52.28125 0 L 52.28125 -33.0625 C 52.28125 -39.101562 50.914062 -43.722656 48.1875 -46.921875 C 45.457031 -50.128906 41.546875 -51.734375 36.453125 -51.734375 C 33.109375 -51.734375 30.085938 -50.878906 27.390625 -49.171875 C 24.703125 -47.460938 22.570312 -45.113281 21 -42.125 C 19.4375 -39.144531 18.65625 -35.835938 18.65625 -32.203125 L 18.65625 0 L 9.390625 0 L 9.390625 -58.9375 L 15.9375 -58.9375 L 17.796875 -49.65625 C 19.972656 -52.9375 22.878906 -55.519531 26.515625 -57.40625 C 30.160156 -59.300781 34.273438 -60.25 38.859375 -60.25 Z M 38.859375 -60.25 "/></g></g></g><g fill="#242424" fill-opacity="1"><g transform="translate(648.516186, 258.673366)"><g><path d="M 33.71875 -8.625 L 40.15625 -8.625 L 40.15625 0 L 32.53125 0 C 26.195312 0 21.207031 -1.832031 17.5625 -5.5 C 13.925781 -9.175781 12.109375 -14.21875 12.109375 -20.625 L 12.109375 -50.53125 L 1.75 -50.53125 L 1.75 -52.171875 L 19.96875 -71.375 L 21.390625 -71.375 L 21.390625 -58.9375 L 39.84375 -58.9375 L 39.84375 -50.53125 L 21.390625 -50.53125 L 21.390625 -20.953125 C 21.390625 -16.953125 22.441406 -13.894531 24.546875 -11.78125 C 26.660156 -9.675781 29.71875 -8.625 33.71875 -8.625 Z M 33.71875 -8.625 "/></g></g></g><g fill="#242424" fill-opacity="1"><g transform="translate(685.513931, 258.673366)"><g><path d="M 33.71875 -8.625 L 40.15625 -8.625 L 40.15625 0 L 32.53125 0 C 26.195312 0 21.207031 -1.832031 17.5625 -5.5 C 13.925781 -9.175781 12.109375 -14.21875 12.109375 -20.625 L 12.109375 -50.53125 L 1.75 -50.53125 L 1.75 -52.171875 L 19.96875 -71.375 L 21.390625 -71.375 L 21.390625 -58.9375 L 39.84375 -58.9375 L 39.84375 -50.53125 L 21.390625 -50.53125 L 21.390625 -20.953125 C 21.390625 -16.953125 22.441406 -13.894531 24.546875 -11.78125 C 26.660156 -9.675781 29.71875 -8.625 33.71875 -8.625 Z M 33.71875 -8.625 "/></g></g></g><g fill="#242424" fill-opacity="1"><g transform="translate(722.511677, 258.673366)"><g><path d="M 8.953125 -69.1875 L 8.953125 -79.78125 L 18.984375 -79.78125 L 18.984375 -69.1875 Z M 9.390625 0 L 9.390625 -58.9375 L 18.65625 -58.9375 L 18.65625 0 Z M 9.390625 0 "/></g></g></g></svg>