<svg width="190" height="52" viewBox="0 0 190 52" fill="none" xmlns="http://www.w3.org/2000/svg">
<g clip-path="url(#clip0_5_32)">
<mask id="mask0_5_32" style="mask-type:luminance" maskUnits="userSpaceOnUse" x="-1" y="0" width="53" height="52">
<path d="M-0.257965 0.216797H51.1744V51.6458H-0.257965V0.216797Z" fill="white"/>
</mask>
<g mask="url(#mask0_5_32)">
<mask id="mask1_5_32" style="mask-type:luminance" maskUnits="userSpaceOnUse" x="-1" y="0" width="53" height="52">
<path d="M25.4582 0.216797C11.2565 0.216797 -0.257965 11.7279 -0.257965 25.9296C-0.257965 40.1314 11.2565 51.6458 25.4582 51.6458C39.6599 51.6458 51.1744 40.1314 51.1744 25.9296C51.1744 11.7279 39.6599 0.216797 25.4582 0.216797Z" fill="white"/>
</mask>
<g mask="url(#mask1_5_32)">
<path d="M-0.257965 0.216797H51.1744V51.6458H-0.257965V0.216797Z" fill="#5B2E4E"/>
</g>
</g>
<mask id="mask2_5_32" style="mask-type:luminance" maskUnits="userSpaceOnUse" x="1" y="5" width="41" height="47">
<path d="M1.52365 5.06659H41.3246V51.5589H1.52365V5.06659Z" fill="white"/>
</mask>
<g mask="url(#mask2_5_32)">
<path d="M38.8178 48.5007C37.892 48.2032 36.9327 47.9993 35.9902 47.762C34.2388 47.3242 32.4339 47.03 31.0668 45.6764C29.2954 43.9183 27.5206 42.1669 25.7391 40.4188C25.3948 40.0779 25.445 39.8941 25.9096 39.7738C26.5045 39.62 27.0928 39.4429 27.6844 39.2691C29.8469 38.634 31.9559 37.892 33.7374 36.4414C40.4021 31.0067 41.9429 21.0297 38.9114 14.9834C38.6874 14.5389 38.4735 14.091 38.263 13.6398C37.678 12.8409 37.8285 12.3764 36.5182 10.2874C35.4587 8.59614 34.4995 7.09876 32.7079 6.11276C31.6584 5.53453 30.6557 5.31728 29.9438 5.22369C29.897 5.217 29.8502 5.21032 29.8068 5.20363C25.5219 4.70896 21.6815 6.76118 20.0838 10.6584C19.4087 12.3062 18.4193 13.4225 17.0523 14.4052C15.9393 15.2073 14.9098 16.1265 13.8637 17.0156C13.6097 17.2328 13.2587 17.3999 13.2019 17.8211C13.6899 17.9381 14.0508 17.6473 14.4419 17.4935C16.2568 16.7816 18.0583 16.0296 19.9635 15.5616C21.5545 15.1672 22.7845 15.7388 23.9041 16.7883C24.3219 17.1827 24.3621 17.4166 23.8106 17.7409C20.9996 19.3886 18.7368 21.6815 16.5242 24.0245C13.3155 27.4137 11.0929 31.4345 8.94371 35.4989C8.94371 35.5022 8.94037 35.5055 8.94037 35.5089C6.64082 40.4055 4.34461 45.3054 2.04506 50.2053C2.04172 50.1852 2.03838 50.1652 2.03503 50.1451C2.02501 50.1685 2.01498 50.1919 2.00495 50.2153C1.82112 50.6398 1.52365 51.1378 2.03169 51.4854C2.5765 51.8631 3.07451 51.5523 3.45554 51.1144C3.66277 50.8704 3.83323 50.5863 3.98363 50.2989C4.42483 49.4599 4.99971 48.738 5.67821 48.0662C9.09746 44.6536 13.2888 42.7685 17.9547 41.8093C18.309 41.7357 18.6533 41.6187 19.0009 41.8326C20.9929 43.0459 22.975 44.2793 24.84 45.8101C23.4028 45.9438 21.9823 45.9137 20.5618 45.9504C18.5396 46.0039 16.5008 45.9304 14.5255 46.4886C13.9071 46.6624 13.2086 46.766 12.754 47.5046C22.4636 46.5454 31.9024 47.0401 41.2276 50.6398C40.5826 49.4599 39.8138 48.8149 38.8211 48.4973L38.8178 48.5007ZM23.854 8.25187C24.9737 7.02857 26.7886 6.46037 28.9745 6.60743C27.2499 6.90824 25.5453 7.27256 23.854 8.25187ZM25.943 11.3101C25.9664 11.8215 25.6221 12.0755 25.1408 12.1658C24.6462 12.0889 24.3554 11.8215 24.3621 11.3035C24.3621 10.8322 24.6228 10.5414 25.0807 10.528C25.5787 10.5147 25.9196 10.8088 25.943 11.3135V11.3101ZM28.2492 22.2096C24.7531 23.2691 22.1761 25.7191 19.4321 27.9317C21.8753 25.2512 24.3587 22.6374 28.2492 22.2096ZM10.0567 42.1435C16.3036 38.3934 21.8519 33.5837 28.1055 29.8068C22.1628 34.0115 16.6412 38.8245 10.0567 42.1435ZM25.6489 44.3294C24.4122 43.5239 23.2056 42.6682 21.9923 41.8193C21.7383 41.6421 21.3472 41.4717 21.4308 41.1007C21.5177 40.7196 21.9723 40.8166 22.2597 40.7063C23.1922 40.3353 23.9008 40.5559 24.6161 41.3413C25.9497 42.7986 27.4237 44.1255 28.8408 45.5059C27.5106 45.5661 26.578 44.9344 25.6489 44.3294Z" fill="#FAF2EF"/>
</g>
<path d="M69.2518 3.96869V13.6214L63.6634 3.96869H57.6738V22.1913H63.5163L63.4361 13.314L69.1181 22.1913H75.0675V3.96869H69.2518Z" fill="#5B2E4E"/>
<path d="M89.8896 14.517C89.8896 11.4554 88.1649 8.07294 83.2984 8.07294C78.9133 8.07294 76.0255 11.3083 76.0255 15.3727C76.0255 19.4236 78.9133 22.6991 83.6461 22.6991C85.6648 22.6991 87.7371 22.1243 88.8869 21.5761L89.3147 17.3112C87.7237 18.0198 86.2264 18.461 84.261 18.461C82.3893 18.461 81.1593 17.4316 81.1994 16.4957H89.6623C89.7693 16.2149 89.8896 15.132 89.8896 14.517ZM81.2797 14.0224C81.3599 12.779 82.162 11.8565 83.6594 11.8565C84.8359 11.8565 85.7451 12.7523 85.7852 14.0224H81.2797Z" fill="#5B2E4E"/>
<path d="M93.495 7.91253C95.3132 7.91253 96.5833 6.7895 96.5833 5.14505C96.5833 3.47387 95.3132 2.35083 93.495 2.35083C91.65 2.35083 90.42 3.47387 90.42 5.14505C90.42 6.7895 91.65 7.91253 93.495 7.91253ZM90.781 22.1911H96.1956V8.56764H90.781V22.1911Z" fill="#5B2E4E"/>
<path d="M106.062 19.2498H102.398C102.078 19.2498 101.636 19.2097 101.636 18.8086L102.064 18.2204C102.559 18.3273 103.107 18.3674 103.668 18.3674C107.412 18.3674 109.698 16.1347 109.698 13.2336C109.698 12.9127 109.671 12.6186 109.631 12.3378L110.968 12.5651V8.58098H106.463C105.647 8.24674 104.685 8.07294 103.668 8.07294C100.233 8.07294 97.6656 10.1051 97.6656 13.2336C97.6656 14.7309 98.2806 16.0545 99.3769 16.977L97.3714 19.2632C97.3714 21.3756 97.9463 22.3382 99.1362 22.6991C97.9597 23.2473 96.9837 23.8489 96.9837 24.9452C96.9837 27.472 100.072 28.4213 103.455 28.4213C108.401 28.4213 111.369 26.1886 111.369 23.0601C111.369 20.9745 110.099 19.2498 106.062 19.2498ZM103.668 11.6827C104.618 11.6827 105.273 12.271 105.273 13.2068C105.273 14.156 104.618 14.771 103.668 14.771C102.746 14.771 102.091 14.156 102.091 13.2068C102.091 12.271 102.746 11.6827 103.668 11.6827ZM103.455 24.9185C102.305 24.9185 101.703 24.7046 101.703 24.1965C101.703 23.8222 102.078 23.4077 102.572 22.9131H104.631C105.259 22.9131 106.088 22.9665 106.088 23.7954C106.088 24.5842 105.286 24.9185 103.455 24.9185Z" fill="#5B2E4E"/>
<path d="M121.037 8.07304C119.781 8.07304 118.43 8.66129 117.321 9.47683V2.88568H111.906V22.1912H117.321V13.608C117.655 13.1935 118.323 12.6187 119.206 12.6187C120.088 12.6187 120.623 13.247 120.623 14.7177V22.1912H126.024V14.7845C126.024 10.1587 124.259 8.07304 121.037 8.07304Z" fill="#5B2E4E"/>
<path d="M135.891 8.07304C134.714 8.07304 133.658 8.47412 132.762 9.23618V2.88568H127.348V21.2821C129.166 22.004 131.786 22.6859 134.607 22.6859C138.872 22.6859 141.88 19.7045 141.88 15.3594C141.88 11.0277 139.434 8.07304 135.891 8.07304ZM134.246 18.3007C133.645 18.3007 133.19 18.2071 132.762 18.0734V13.0732C133.217 12.739 133.658 12.5919 134.286 12.5919C135.944 12.5919 136.72 13.8085 136.72 15.3861C136.72 16.9637 135.917 18.3007 134.246 18.3007Z" fill="#5B2E4E"/>
<path d="M149.972 22.6858C154.611 22.6858 157.793 19.7177 157.793 15.4128C157.793 11.0677 154.611 8.07294 149.998 8.07294C145.413 8.07294 142.271 11.0677 142.271 15.4128C142.271 19.7177 145.413 22.6858 149.972 22.6858ZM150.039 18.1669C148.514 18.1669 147.418 17.1107 147.418 15.3994C147.418 13.6747 148.514 12.5918 150.025 12.5918C151.536 12.5918 152.632 13.6614 152.632 15.3994C152.632 17.1107 151.563 18.1669 150.039 18.1669Z" fill="#5B2E4E"/>
<path d="M168.54 8.42054C168.138 8.20663 167.59 8.07294 166.922 8.07294C165.866 8.07294 164.783 8.63445 163.767 9.82434L163.205 8.56761H158.673V22.1911H164.088V13.8619C164.649 13.2469 165.478 12.8057 166.4 12.8057C167.203 12.8057 167.831 12.9795 168.86 13.3138L168.54 8.42054Z" fill="#5B2E4E"/>
<path d="M169.545 22.1912H174.96V2.88568H169.545V22.1912Z" fill="#5B2E4E"/>
<path d="M184.331 8.56757L182.66 15.9074H182.553L180.869 8.56757H174.946L179.813 22.2312C179.371 23.4077 178.649 23.9291 177.821 23.9291C176.831 23.9291 176.484 23.7419 175.722 23.4745L176.069 27.9399C176.885 28.1405 177.66 28.3945 179.117 28.3945C181.136 28.3945 183.663 27.3517 185.107 22.7927L185.281 22.2445L189.773 8.56757H184.331Z" fill="#5B2E4E"/>
<path d="M67.0057 50.1818C68.7304 50.1818 70.5085 49.6203 71.8588 48.8048L71.939 44.7806C70.8428 45.8234 68.9844 46.5854 67.2464 46.5854C63.9708 46.5854 61.4708 44.0185 61.4708 40.5959C61.4708 37.1867 63.9575 34.6064 67.2464 34.6064C68.971 34.6064 70.6823 35.3283 71.7118 36.1439L71.6984 32.3202C70.455 31.5448 68.7304 31.01 67.1528 31.01C61.7381 31.01 57.5669 35.1412 57.5669 40.5826C57.5669 46.0507 61.7381 50.1818 67.0057 50.1818Z" fill="#5B2E4E"/>
<path d="M79.335 35.6492C77.4365 35.6492 75.6584 36.1305 74.268 36.9193L73.9471 40.0477C75.2974 39.2456 76.982 38.684 78.7467 38.684C81.3404 38.684 81.7682 40.0477 81.7682 41.4916V42.1735C80.5249 41.9729 79.3083 41.8125 78.359 41.8125C75.4044 41.8125 73.4524 43.4971 73.4524 46.0907C73.4524 48.6978 75.0434 50.1952 77.6772 50.1952C79.2414 50.1952 80.7923 49.393 81.8886 48.27L82.3164 49.7139H85.378L85.4047 41.4114C85.4047 37.7883 83.5597 35.6492 79.335 35.6492ZM78.8403 47.5346C77.4766 47.5346 76.7146 46.9999 76.7146 45.7431C76.7146 44.4062 77.6237 43.9516 79.1879 43.9516C80.0168 43.9516 80.8725 44.0853 81.7682 44.2725V45.9971C80.9794 46.9731 79.9232 47.5346 78.8403 47.5346Z" fill="#5B2E4E"/>
<path d="M96.8008 35.9567C96.3329 35.7428 95.7446 35.6359 95.1163 35.6359C93.913 35.6359 92.7231 36.291 91.6536 37.6413L91.2391 36.1038H88.1641V49.7139H91.7873V40.6628C92.5359 39.5264 93.6189 38.8178 94.782 38.8178C95.4772 38.8178 96.1457 38.9782 97.0013 39.2724L96.8008 35.9567Z" fill="#5B2E4E"/>
<path d="M111.093 41.9997C111.093 38.7242 109.074 35.6359 104.796 35.6359C100.799 35.6359 97.9243 38.6841 97.9243 42.8286C97.9243 47.0133 100.759 50.2086 105.184 50.2086C107.283 50.2086 109.155 49.4733 110.251 48.9118L110.518 45.8769C109.008 46.6523 107.604 47.2406 105.572 47.2406C103.192 47.2406 101.481 45.7566 101.414 43.9116H110.946C111.026 43.6575 111.093 42.4409 111.093 41.9997ZM101.454 41.7858C101.561 39.7136 102.871 38.3632 105.023 38.3632C106.868 38.3632 108.179 39.5932 108.152 41.7858H101.454Z" fill="#5B2E4E"/>
</g>
<defs>
<clipPath id="clip0_5_32">
<rect width="190" height="51.3776" fill="white"/>
</clipPath>
</defs>
</svg>
