<svg xmlns="http://www.w3.org/2000/svg" xmlns:xlink="http://www.w3.org/1999/xlink" width="100" zoomAndPan="magnify" viewBox="0 0 75 74.999997" height="100" preserveAspectRatio="xMidYMid meet" version="1.0"><defs><clipPath id="f17f2d5b05"><path d="M 37.5 0 C 16.789062 0 0 16.789062 0 37.5 C 0 58.210938 16.789062 75 37.5 75 C 58.210938 75 75 58.210938 75 37.5 C 75 16.789062 58.210938 0 37.5 0 Z M 37.5 0 " clip-rule="nonzero"/></clipPath><clipPath id="eeff6bf292"><path d="M 9.898438 2.398438 L 64 2.398438 L 64 31 L 9.898438 31 Z M 9.898438 2.398438 " clip-rule="nonzero"/></clipPath><clipPath id="bf036f7bed"><path d="M 14 44 L 65.398438 44 L 65.398438 75 L 14 75 Z M 14 44 " clip-rule="nonzero"/></clipPath></defs><g clip-path="url(#f17f2d5b05)"><rect x="-7.5" width="90" fill="#f1f1f1" y="-7.5" height="89.999996" fill-opacity="1"/></g><path fill="#a92323" d="M 39.9375 16.570312 L 39.9375 42.976562 L 33.390625 42.976562 L 33.390625 16.570312 L 36.664062 14.09375 Z M 39.9375 16.570312 " fill-opacity="1" fill-rule="nonzero"/><path fill="#d53636" d="M 24.179688 42.976562 L 30.726562 42.976562 L 30.726562 18.585938 L 24.179688 23.542969 Z M 24.179688 42.976562 " fill-opacity="1" fill-rule="nonzero"/><path fill="#d53636" d="M 42.601562 18.585938 L 42.601562 42.976562 L 49.148438 42.976562 L 49.148438 23.542969 Z M 42.601562 18.585938 " fill-opacity="1" fill-rule="nonzero"/><path fill="#f3ccc4" d="M 14.96875 45.179688 C 16.214844 43.824219 18.003906 42.976562 19.984375 42.976562 L 21.515625 42.976562 L 21.515625 25.558594 L 14.96875 30.515625 Z M 14.96875 45.179688 " fill-opacity="1" fill-rule="nonzero"/><path fill="#f3ccc4" d="M 51.8125 25.558594 L 51.8125 42.976562 L 53.34375 42.976562 C 55.324219 42.976562 57.113281 43.824219 58.359375 45.179688 L 58.359375 30.515625 Z M 51.8125 25.558594 " fill-opacity="1" fill-rule="nonzero"/><g clip-path="url(#eeff6bf292)"><path fill="#242424" d="M 63.429688 30.882812 L 63.429688 22.667969 L 42.089844 6.515625 L 36.664062 2.40625 L 31.238281 6.515625 L 9.898438 22.667969 L 9.898438 30.882812 L 36.664062 10.621094 Z M 63.429688 30.882812 " fill-opacity="1" fill-rule="nonzero"/></g><g clip-path="url(#bf036f7bed)"><path fill="#242424" d="M 58.359375 49.917969 L 58.359375 49.796875 C 58.359375 47.023438 56.113281 44.777344 53.34375 44.777344 L 19.988281 44.777344 C 17.214844 44.777344 14.96875 47.023438 14.96875 49.796875 L 14.96875 53.46875 C 14.96875 56.238281 17.214844 58.488281 19.988281 58.488281 L 53.34375 58.488281 C 56.113281 58.488281 58.359375 56.238281 58.359375 53.46875 L 58.359375 53.347656 C 60.183594 53.347656 61.664062 54.828125 61.664062 56.652344 L 61.664062 62.160156 C 61.664062 63.980469 60.183594 65.464844 58.359375 65.464844 L 34.15625 65.464844 C 30.441406 65.464844 27.421875 68.484375 27.421875 72.195312 L 27.421875 77.703125 L 30.851562 77.703125 L 30.851562 72.195312 C 30.851562 70.375 32.332031 68.890625 34.15625 68.890625 L 58.359375 68.890625 C 62.074219 68.890625 65.09375 65.871094 65.09375 62.160156 L 65.09375 56.652344 C 65.09375 52.9375 62.074219 49.917969 58.359375 49.917969 Z M 56.742188 53.46875 C 56.742188 55.34375 55.21875 56.871094 53.34375 56.871094 L 19.984375 56.871094 C 18.113281 56.871094 16.585938 55.34375 16.585938 53.46875 L 16.585938 51.851562 C 16.585938 53.726562 18.113281 55.253906 19.984375 55.253906 L 53.34375 55.253906 C 55.21875 55.253906 56.742188 53.726562 56.742188 51.851562 Z M 56.742188 53.46875 " fill-opacity="1" fill-rule="nonzero"/></g></svg>